<?xml version="1.0" encoding="UTF-8" standalone="no"?>
<!DOCTYPE svg PUBLIC "-//W3C//DTD SVG 1.1//EN" "http://www.w3.org/Graphics/SVG/1.1/DTD/svg11.dtd">
<svg width="100%" height="100%" viewBox="0 0 646 651" version="1.1" xmlns="http://www.w3.org/2000/svg" xmlns:xlink="http://www.w3.org/1999/xlink" xml:space="preserve" xmlns:serif="http://www.serif.com/" style="fill-rule:evenodd;clip-rule:evenodd;stroke-linecap:round;stroke-linejoin:round;stroke-miterlimit:1.5;">
    <g transform="matrix(1,0,0,1,-191,-186)">
        <g>
            <path id="Fill" d="M748.099,264.921C518.298,181.54 312.265,249.103 270.19,264.785C229.611,390.244 225.698,511.035 232.768,603.46C238.828,682.688 252.978,741.01 259.09,763.383C552.568,835.533 730.493,775.667 768.877,760.297C840.168,467.771 764.498,297.061 748.099,264.921ZM717.216,539.419C473.962,544.046 329.94,540.28 303.493,539.476C299.08,585.458 302.104,616.512 303.388,626.507C487.709,647.098 686.916,629.385 717.019,626.48C720.649,580.649 718.32,550.019 717.216,539.419ZM712.488,362.298C483.599,335.759 329.002,359.66 309.567,362.936C309.095,364.118 308.321,366.384 307.608,369.944C305.564,380.151 303.542,400.371 304.028,440.202C525.242,424.943 686.116,437.46 715.914,440.1C717.522,401.718 716.379,381.434 714.676,370.714C713.995,366.427 712.993,363.561 712.488,362.298Z"/>
            <path id="Border" d="M254.941,250.338C254.941,250.338 493.408,149.124 761.409,249.576C762.084,249.829 760.734,249.321 761.409,249.576C761.409,249.576 871.107,432.548 785.05,774.034M785.05,774.034C785.05,774.034 592.268,867.753 243.862,779.166M243.862,779.166C243.862,779.166 162.853,524.409 254.941,250.338" style="fill:none;stroke:white;stroke-width:38px;"/>
            <path id="Top-Bar" serif:id="Top Bar" d="M712.488,362.298C483.599,335.759 329.002,359.66 309.567,362.936C309.095,364.118 308.321,366.384 307.608,369.944C305.564,380.151 303.542,400.371 304.028,440.202C525.242,424.943 686.116,437.46 715.914,440.1C717.522,401.718 716.379,381.434 714.676,370.714C713.995,366.427 712.993,363.561 712.488,362.298Z" style="fill:white;"/>
            <path id="Bottom-Bar" serif:id="Bottom Bar" d="M717.216,539.419C473.962,544.046 329.94,540.28 303.493,539.476C299.08,585.458 302.104,616.512 303.388,626.507C487.709,647.098 686.916,629.385 717.019,626.48C720.649,580.649 718.32,550.019 717.216,539.419Z" style="fill:white;"/>
        </g>
    </g>
</svg>
